<?xml version="1.0" encoding="UTF-8"?>
<svg id="Layer_2" data-name="Layer 2" xmlns="http://www.w3.org/2000/svg" viewBox="0 0 767.62 767.62">
  <defs>
    <style>
      .cls-1 {
        fill: #fff;
      }
    </style>
  </defs>
  <g id="Layer_1-2" data-name="Layer 1">
    <g>
      <path class="cls-1" d="M383.81,0C172.18,0,0,172.18,0,383.81s172.18,383.81,383.81,383.81,383.81-172.18,383.81-383.81S595.44,0,383.81,0ZM261.69,386.28v-45.8h30.53v45.8c0,50.5,41.09,91.59,91.59,91.59s91.59-41.09,91.59-91.59v-45.8h30.53v45.8c0,62.16-46.69,113.63-106.85,121.17v16.21h61.05v30.53h-152.65v-30.53h61.06v-16.21c-60.16-7.54-106.85-59.01-106.85-121.17Z"/>
      <path d="M383.81,0C172.18,0,0,172.18,0,383.81s172.18,383.81,383.81,383.81,383.81-172.18,383.81-383.81S595.44,0,383.81,0ZM383.81,751.41c-202.69,0-367.6-164.91-367.6-367.6S181.12,16.21,383.81,16.21s367.6,164.91,367.6,367.6-164.91,367.6-367.6,367.6Z"/>
      <g>
        <path d="M131.64,189.81l-21.72,26.64-17.57-14.33,63.77-78.2,17.56,14.33-21.72,26.64,50.79,41.42-20.32,24.92-50.79-41.42Z"/>
        <path d="M200.21,93.94l32.44-18.47,81.55,55.05-29.01,16.52-13.71-9.91-38.21,21.76,1.83,16.68-28.9,16.46-5.98-98.08ZM257.06,124.5l-30.96-22.49-.22.12,3.77,37.97,27.4-15.6Z"/>
        <path d="M298.65,46.57l31.99-3.16,3.19,32.12.24-.03,34.32-35.82,40.21-3.97-39.1,40.02,48.07,47.74-38.86,3.84-29.44-30.9-12.13,12.46,2.22,22.31-31.99,3.16-8.72-87.78Z"/>
        <path d="M436.02,40.9l89.13,26.55-5.69,19.12-59.26-17.65-4.22,14.16,54.53,16.25-4.88,16.41-54.54-16.25-4.68,15.7,60.44,18-5.7,19.12-90.31-26.89,25.17-84.53Z"/>
        <path d="M527.79,154.49c16.42-17.02,31.67-16.5,54.44.18l11.29,7.99c7.5,5.53,11.96,6.59,15.21,3.22,3.85-3.99,1.73-10.66-5.01-17.17-8.24-7.96-23.26-15.1-36.27-17.05l5.81-21.28c15.8,1.9,35.15,12.55,48.61,25.55,17.81,17.2,23.56,36.8,9.62,51.24-10.78,11.16-22.81,9.98-41-3.64l-12.79-9.28c-10.32-7.4-16.09-8.34-21.05-3.2l47.76,46.14-13.77,14.27-70.98-68.56,8.12-8.42Z"/>
        <path d="M604.97,220.02l14.17,29.01,37.03-18.2-.05-.11c-8.75-1.35-15.81-6.82-23.66-15.6l17.78-15.52c9.09,12.15,19.06,19.08,30.89,20.85l13.42,27.45-61.33,29.91,9.74,19.93-17.94,8.74-37.97-77.71,17.93-8.75Z"/>
      </g>
      <g>
        <path d="M96.77,538.01l5.96-8.28c3.12-5.15,3.24-10.8,1.07-15.83l-7.06-16.41-25.5,10.98-12.03-27.98,76.73-33.03,27.75,64.54c8.85,20.58,5.03,36.21-10.41,42.85-11.47,4.94-23.01.25-31.72-12.64l-.11.04c.14,2.99-.88,6.23-2.88,9.25l-5.9,9.02c-1.33,2.23-1.83,4.61-.54,7.6.78,1.82,2.85,3.98,4.91,4.62l-9.22,9.56c-5.44-2.61-11.61-9.86-14.66-16.94-4.97-11.58-.82-20.23,3.61-27.34ZM124.63,518.9c3.45,8.04,9.02,11.23,14.91,8.7,6-2.58,7.51-8.82,4.05-16.86l-12.13-28.2-18.97,8.17,12.13,28.2Z"/>
        <path d="M178.32,542.34l61.94,62.69-13.46,13.27-41.18-41.67-9.98,9.83,37.9,38.36-11.55,11.39-37.9-38.36-11.06,10.89,42.01,42.51-13.46,13.27-62.76-63.51,59.5-58.65Z"/>
        <path d="M215.6,640.88c10.8-24.57,38.05-31.19,70.2-17.03,24.46,10.77,38.61,29.63,36.37,48.66l-27.66-5.81c.96-9.14-5.59-18.02-16.6-22.86-15.49-6.82-28.94-3.18-34.43,9.32-5.49,12.5,2.1,25.4,19.62,33.11,13.78,6.07,26.4,4.61,32.72-3.69l23.62,15.89c-12.18,16.69-37.64,19.5-65.73,7.14-34.07-15.01-49.23-39.4-38.11-64.73Z"/>
        <path d="M331.25,690.15c-.61-26.82,23.49-45.23,60.12-46.07,36.75-.84,61.65,16.44,62.26,43.27.6,26.82-23.49,45.23-60.24,46.08-36.63.84-61.53-16.44-62.14-43.27ZM423.19,688.04c-.32-13.88-13.01-22.92-31.33-22.5-18.32.42-30.48,10.03-30.16,23.91.31,13.88,12.89,22.93,31.21,22.51,18.31-.42,30.59-10.04,30.28-23.92Z"/>
        <path d="M538.15,680.77l-8.54-5.6c-5.29-2.89-10.93-2.76-15.87-.38l-16.09,7.75,12.08,25.01-27.44,13.23-36.33-75.23,63.3-30.51c20.19-9.73,35.97-6.58,43.27,8.54,5.43,11.24,1.25,22.97-11.26,32.23l.05.11c2.99-.27,6.26.61,9.37,2.48l9.27,5.51c2.28,1.23,4.68,1.63,7.62.22,1.79-.86,3.85-3.03,4.4-5.1l9.95,8.8c-2.37,5.55-9.35,12.03-16.29,15.37-11.36,5.47-20.18,1.7-27.49-2.43ZM517.85,653.77c7.88-3.81,10.84-9.5,8.04-15.28-2.84-5.88-9.15-7.12-17.03-3.32l-27.65,13.33,8.98,18.6,27.66-13.33Z"/>
        <path d="M539.21,601.52l38.76-45.03c21.16-24.6,44.28-28.56,64.61-11.05,20.33,17.51,19.85,40.98-1.32,65.57l-38.76,45.03-63.3-54.52ZM622.87,600.71c10.51-12.21,10.7-24.06.45-32.89-10.26-8.84-22.03-6.96-32.54,5.25l-16.68,19.37,32.09,27.64,16.67-19.37Z"/>
        <path d="M673.76,547.89l-13.87-15.66c10.35-6.77,21.35-22.18,26.37-37.36,3.7-11.19,3.39-19.16-.71-20.52-3.43-1.14-7.22,3.26-12.55,14.9l-6.5,14.08c-10.94,24.16-21.48,32.59-35.54,27.93-17.05-5.65-20.31-28.13-10.96-56.37,5.54-16.73,14.73-31.14,24.27-38.8l13.94,13.6c-8.62,6.73-16.6,18.59-20.52,30.82-3.62,11.34-3.72,20.52.45,22.03,2.99.99,6.34-2.82,10.71-12.68l6.42-14.22c11.64-25.89,22.76-34.99,37.16-30.22,16.43,5.32,21.39,27.86,11.74,57-6.31,19.06-18.7,37.57-30.41,45.49Z"/>
      </g>
      <path d="M383.81,157.98c-126.96,0-229.87,102.92-229.87,229.87s102.91,229.88,229.87,229.88,229.87-102.92,229.87-229.88-102.92-229.87-229.87-229.87ZM505.93,386.28c0,62.16-46.69,113.63-106.85,121.17v16.21h61.05v30.53h-152.65v-30.53h61.06v-16.21c-60.16-7.54-106.85-59.01-106.85-121.17v-45.8h30.53v45.8c0,50.5,41.09,91.59,91.59,91.59s91.59-41.09,91.59-91.59v-45.8h30.53v45.8Z"/>
      <g>
        <path class="cls-1" d="M505.93,340.48v45.8c0,62.16-46.69,113.63-106.85,121.17v16.21h61.05v30.53h-152.65v-30.53h61.06v-16.21c-60.16-7.54-106.85-59.01-106.85-121.17v-45.8h30.53v45.8c0,50.5,41.09,91.59,91.59,91.59s91.59-41.09,91.59-91.59v-45.8h30.53Z"/>
        <rect class="cls-1" x="312.84" y="215.02" width="141.95" height="246.95" rx="65.53" ry="65.53"/>
        <g>
          <rect x="375.7" y="280.55" width="16.21" height="124.89" rx="8.11" ry="8.11"/>
          <rect x="408.87" y="310.96" width="16.21" height="64.08" rx="8.11" ry="8.11"/>
          <rect x="342.54" y="296.22" width="16.21" height="69.88" rx="8.11" ry="8.11"/>
        </g>
      </g>
    </g>
  </g>
</svg>